<mxfile host="app.diagrams.net" modified="2021-04-25T13:20:05.837Z" agent="5.0 (Windows NT 10.0; Win64; x64) AppleWebKit/537.36 (KHTML, like Gecko) Chrome/90.0.4430.85 Safari/537.36" etag="RH0kjMzfn3wVtK1Ovd29" version="14.6.6" type="github">
  <diagram name="Page-1" id="c7488fd3-1785-93aa-aadb-54a6760d102a">
    <mxGraphModel dx="1767" dy="800" grid="1" gridSize="10" guides="1" tooltips="1" connect="1" arrows="1" fold="1" page="1" pageScale="1" pageWidth="1100" pageHeight="850" background="#ffffff" math="0" shadow="0">
      <root>
        <mxCell id="0" />
        <mxCell id="1" parent="0" />
        <mxCell id="WwDCoRHWFadDtdQRUzwM-2" value="Arduino&lt;br&gt;Mega&lt;br&gt;2560" style="shape=ext;double=1;rounded=0;whiteSpace=wrap;html=1;" vertex="1" parent="1">
          <mxGeometry x="603" y="245" width="120" height="150" as="geometry" />
        </mxCell>
        <mxCell id="WwDCoRHWFadDtdQRUzwM-3" value="DATABASE MONITEUR" style="shape=ext;double=1;rounded=0;whiteSpace=wrap;html=1;" vertex="1" parent="1">
          <mxGeometry x="753" y="85" width="120" height="80" as="geometry" />
        </mxCell>
        <mxCell id="WwDCoRHWFadDtdQRUzwM-72" value="" style="edgeStyle=orthogonalEdgeStyle;rounded=0;orthogonalLoop=1;jettySize=auto;html=1;" edge="1" parent="1" source="WwDCoRHWFadDtdQRUzwM-5" target="WwDCoRHWFadDtdQRUzwM-71">
          <mxGeometry relative="1" as="geometry" />
        </mxCell>
        <mxCell id="WwDCoRHWFadDtdQRUzwM-5" value="RFID&lt;br&gt;1DR-232N" style="shape=ext;double=1;rounded=0;whiteSpace=wrap;html=1;" vertex="1" parent="1">
          <mxGeometry x="815" y="385" width="120" height="80" as="geometry" />
        </mxCell>
        <mxCell id="WwDCoRHWFadDtdQRUzwM-7" value="" style="shape=link;html=1;entryX=0.927;entryY=0.03;entryDx=0;entryDy=0;entryPerimeter=0;" edge="1" parent="1" source="WwDCoRHWFadDtdQRUzwM-3" target="WwDCoRHWFadDtdQRUzwM-2">
          <mxGeometry width="100" relative="1" as="geometry">
            <mxPoint x="553" y="275" as="sourcePoint" />
            <mxPoint x="653" y="275" as="targetPoint" />
            <Array as="points">
              <mxPoint x="813" y="250" />
            </Array>
          </mxGeometry>
        </mxCell>
        <mxCell id="WwDCoRHWFadDtdQRUzwM-8" value="STEP DOWN&lt;br&gt;LM 2596" style="rounded=0;whiteSpace=wrap;html=1;" vertex="1" parent="1">
          <mxGeometry x="806" y="635" width="120" height="60" as="geometry" />
        </mxCell>
        <mxCell id="WwDCoRHWFadDtdQRUzwM-9" value="CAN" style="shape=link;html=1;entryX=0.56;entryY=-0.067;entryDx=0;entryDy=0;startArrow=none;entryPerimeter=0;exitX=0.5;exitY=1;exitDx=0;exitDy=0;" edge="1" parent="1" source="WwDCoRHWFadDtdQRUzwM-71" target="WwDCoRHWFadDtdQRUzwM-8">
          <mxGeometry width="100" relative="1" as="geometry">
            <mxPoint x="966.1500000000001" y="365.3900000000001" as="sourcePoint" />
            <mxPoint x="933" y="355" as="targetPoint" />
          </mxGeometry>
        </mxCell>
        <mxCell id="WwDCoRHWFadDtdQRUzwM-10" value="BUS" style="shape=link;html=1;exitX=0.75;exitY=1;exitDx=0;exitDy=0;" edge="1" parent="1" source="WwDCoRHWFadDtdQRUzwM-2">
          <mxGeometry width="100" relative="1" as="geometry">
            <mxPoint x="553" y="385" as="sourcePoint" />
            <mxPoint x="870" y="570" as="targetPoint" />
            <Array as="points">
              <mxPoint x="693" y="570" />
            </Array>
          </mxGeometry>
        </mxCell>
        <mxCell id="WwDCoRHWFadDtdQRUzwM-12" value="ADAPTEUR&lt;br&gt;12V" style="whiteSpace=wrap;html=1;rounded=0;" vertex="1" parent="1">
          <mxGeometry x="573" y="635" width="120" height="60" as="geometry" />
        </mxCell>
        <mxCell id="WwDCoRHWFadDtdQRUzwM-14" value="" style="shape=link;html=1;entryX=0;entryY=0.5;entryDx=0;entryDy=0;exitX=1;exitY=0.5;exitDx=0;exitDy=0;" edge="1" parent="1" source="WwDCoRHWFadDtdQRUzwM-12" target="WwDCoRHWFadDtdQRUzwM-8">
          <mxGeometry width="100" relative="1" as="geometry">
            <mxPoint x="793" y="654.5" as="sourcePoint" />
            <mxPoint x="873" y="654.5" as="targetPoint" />
          </mxGeometry>
        </mxCell>
        <mxCell id="WwDCoRHWFadDtdQRUzwM-15" value="PRISE&lt;br&gt;MULTIPLE" style="whiteSpace=wrap;html=1;rounded=0;" vertex="1" parent="1">
          <mxGeometry x="266.5" y="635" width="120" height="60" as="geometry" />
        </mxCell>
        <mxCell id="WwDCoRHWFadDtdQRUzwM-16" value="" style="shape=link;html=1;entryX=0;entryY=0.5;entryDx=0;entryDy=0;exitX=1;exitY=0.5;exitDx=0;exitDy=0;" edge="1" parent="1" source="WwDCoRHWFadDtdQRUzwM-15" target="WwDCoRHWFadDtdQRUzwM-12">
          <mxGeometry width="100" relative="1" as="geometry">
            <mxPoint x="803" y="675" as="sourcePoint" />
            <mxPoint x="853" y="675" as="targetPoint" />
          </mxGeometry>
        </mxCell>
        <mxCell id="WwDCoRHWFadDtdQRUzwM-17" value="ONDULEUR" style="whiteSpace=wrap;html=1;rounded=0;" vertex="1" parent="1">
          <mxGeometry x="103" y="635" width="120" height="60" as="geometry" />
        </mxCell>
        <mxCell id="WwDCoRHWFadDtdQRUzwM-18" value="" style="shape=link;html=1;entryX=0;entryY=0.5;entryDx=0;entryDy=0;exitX=1;exitY=0.5;exitDx=0;exitDy=0;" edge="1" parent="1" source="WwDCoRHWFadDtdQRUzwM-17" target="WwDCoRHWFadDtdQRUzwM-15">
          <mxGeometry width="100" relative="1" as="geometry">
            <mxPoint x="623" y="675" as="sourcePoint" />
            <mxPoint x="683" y="675" as="targetPoint" />
          </mxGeometry>
        </mxCell>
        <mxCell id="WwDCoRHWFadDtdQRUzwM-20" value="MODULE Wifi&lt;br&gt;ESP8266" style="rounded=1;whiteSpace=wrap;html=1;" vertex="1" parent="1">
          <mxGeometry x="603" y="450" width="120" height="60" as="geometry" />
        </mxCell>
        <mxCell id="WwDCoRHWFadDtdQRUzwM-22" value="STEP DOWN&lt;br&gt;LM 2596" style="rounded=0;whiteSpace=wrap;html=1;" vertex="1" parent="1">
          <mxGeometry x="433" y="328" width="120" height="60" as="geometry" />
        </mxCell>
        <mxCell id="WwDCoRHWFadDtdQRUzwM-24" value="SECTEUR&amp;nbsp;&lt;br&gt;220" style="whiteSpace=wrap;html=1;rounded=0;" vertex="1" parent="1">
          <mxGeometry x="93" y="760" width="120" height="60" as="geometry" />
        </mxCell>
        <mxCell id="WwDCoRHWFadDtdQRUzwM-25" value="" style="shape=link;html=1;exitX=0.587;exitY=0.033;exitDx=0;exitDy=0;entryX=0.5;entryY=1;entryDx=0;entryDy=0;exitPerimeter=0;" edge="1" parent="1" source="WwDCoRHWFadDtdQRUzwM-24" target="WwDCoRHWFadDtdQRUzwM-17">
          <mxGeometry width="100" relative="1" as="geometry">
            <mxPoint x="463" y="675" as="sourcePoint" />
            <mxPoint x="333" y="665" as="targetPoint" />
          </mxGeometry>
        </mxCell>
        <mxCell id="WwDCoRHWFadDtdQRUzwM-26" value="ADAPTEUR&lt;br&gt;12V" style="whiteSpace=wrap;html=1;rounded=0;" vertex="1" parent="1">
          <mxGeometry x="266.5" y="465" width="120" height="60" as="geometry" />
        </mxCell>
        <mxCell id="WwDCoRHWFadDtdQRUzwM-27" value="" style="shape=link;html=1;exitX=0.5;exitY=1;exitDx=0;exitDy=0;entryX=0.5;entryY=0;entryDx=0;entryDy=0;" edge="1" parent="1" source="WwDCoRHWFadDtdQRUzwM-26" target="WwDCoRHWFadDtdQRUzwM-15">
          <mxGeometry width="100" relative="1" as="geometry">
            <mxPoint x="303" y="385" as="sourcePoint" />
            <mxPoint x="403" y="385" as="targetPoint" />
          </mxGeometry>
        </mxCell>
        <mxCell id="WwDCoRHWFadDtdQRUzwM-28" value="" style="shape=link;html=1;entryX=0;entryY=0.75;entryDx=0;entryDy=0;exitX=1;exitY=0.5;exitDx=0;exitDy=0;" edge="1" parent="1" source="WwDCoRHWFadDtdQRUzwM-22" target="WwDCoRHWFadDtdQRUzwM-2">
          <mxGeometry width="100" relative="1" as="geometry">
            <mxPoint x="473" y="335" as="sourcePoint" />
            <mxPoint x="573" y="335" as="targetPoint" />
          </mxGeometry>
        </mxCell>
        <mxCell id="WwDCoRHWFadDtdQRUzwM-34" value="MUR" style="rounded=0;whiteSpace=wrap;html=1;" vertex="1" parent="1">
          <mxGeometry x="233" y="35" width="30" height="190" as="geometry" />
        </mxCell>
        <mxCell id="WwDCoRHWFadDtdQRUzwM-36" value="" style="rounded=0;whiteSpace=wrap;html=1;" vertex="1" parent="1">
          <mxGeometry x="273" y="35" width="107" height="190" as="geometry" />
        </mxCell>
        <mxCell id="WwDCoRHWFadDtdQRUzwM-37" value="CLE" style="ellipse;whiteSpace=wrap;html=1;" vertex="1" parent="1">
          <mxGeometry x="286.5" y="45" width="80" height="80" as="geometry" />
        </mxCell>
        <mxCell id="WwDCoRHWFadDtdQRUzwM-39" value="&amp;nbsp; &amp;nbsp; MECANISME" style="strokeWidth=2;html=1;shape=mxgraph.flowchart.annotation_1;align=left;pointerEvents=1;" vertex="1" parent="1">
          <mxGeometry x="281" y="135" width="30" height="50" as="geometry" />
        </mxCell>
        <mxCell id="WwDCoRHWFadDtdQRUzwM-43" value="" style="shape=link;html=1;exitX=0.5;exitY=1;exitDx=0;exitDy=0;entryX=0;entryY=0.5;entryDx=0;entryDy=0;" edge="1" parent="1" source="WwDCoRHWFadDtdQRUzwM-36" target="WwDCoRHWFadDtdQRUzwM-22">
          <mxGeometry width="100" relative="1" as="geometry">
            <mxPoint x="393" y="405" as="sourcePoint" />
            <mxPoint x="493" y="405" as="targetPoint" />
            <Array as="points">
              <mxPoint x="327" y="358" />
            </Array>
          </mxGeometry>
        </mxCell>
        <mxCell id="WwDCoRHWFadDtdQRUzwM-44" value="" style="shape=link;html=1;entryX=0.5;entryY=0;entryDx=0;entryDy=0;exitX=0.5;exitY=1;exitDx=0;exitDy=0;" edge="1" parent="1" source="WwDCoRHWFadDtdQRUzwM-36" target="WwDCoRHWFadDtdQRUzwM-26">
          <mxGeometry width="100" relative="1" as="geometry">
            <mxPoint x="333" y="365" as="sourcePoint" />
            <mxPoint x="493" y="405" as="targetPoint" />
          </mxGeometry>
        </mxCell>
        <mxCell id="WwDCoRHWFadDtdQRUzwM-46" value="" style="shape=or;whiteSpace=wrap;html=1;" vertex="1" parent="1">
          <mxGeometry x="386.5" y="135" width="36" height="50" as="geometry" />
        </mxCell>
        <mxCell id="WwDCoRHWFadDtdQRUzwM-50" value="" style="shape=link;html=1;entryX=0.167;entryY=-0.003;entryDx=0;entryDy=0;entryPerimeter=0;exitX=0.7;exitY=0.1;exitDx=0;exitDy=0;exitPerimeter=0;" edge="1" parent="1" source="WwDCoRHWFadDtdQRUzwM-46" target="WwDCoRHWFadDtdQRUzwM-2">
          <mxGeometry width="100" relative="1" as="geometry">
            <mxPoint x="422.5" y="145" as="sourcePoint" />
            <mxPoint x="623" y="145" as="targetPoint" />
            <Array as="points">
              <mxPoint x="623" y="140" />
            </Array>
          </mxGeometry>
        </mxCell>
        <mxCell id="WwDCoRHWFadDtdQRUzwM-51" value="" style="shape=link;html=1;entryX=0.06;entryY=0.003;entryDx=0;entryDy=0;entryPerimeter=0;exitX=0.7;exitY=0.9;exitDx=0;exitDy=0;exitPerimeter=0;" edge="1" parent="1" source="WwDCoRHWFadDtdQRUzwM-46" target="WwDCoRHWFadDtdQRUzwM-2">
          <mxGeometry width="100" relative="1" as="geometry">
            <mxPoint x="432.5" y="155" as="sourcePoint" />
            <mxPoint x="633.04" y="254.54999999999995" as="targetPoint" />
            <Array as="points">
              <mxPoint x="610" y="180" />
            </Array>
          </mxGeometry>
        </mxCell>
        <mxCell id="WwDCoRHWFadDtdQRUzwM-52" value="D2F-01" style="text;html=1;strokeColor=none;fillColor=none;align=center;verticalAlign=middle;whiteSpace=wrap;rounded=0;" vertex="1" parent="1">
          <mxGeometry x="383" y="195" width="50" height="20" as="geometry" />
        </mxCell>
        <mxCell id="WwDCoRHWFadDtdQRUzwM-53" value="12 V" style="rounded=0;whiteSpace=wrap;html=1;" vertex="1" parent="1">
          <mxGeometry x="306.5" y="215" width="40" height="20" as="geometry" />
        </mxCell>
        <mxCell id="WwDCoRHWFadDtdQRUzwM-54" value="RJ 45" style="rounded=0;whiteSpace=wrap;html=1;" vertex="1" parent="1">
          <mxGeometry x="380" y="45" width="40" height="30" as="geometry" />
        </mxCell>
        <mxCell id="WwDCoRHWFadDtdQRUzwM-55" value="MODULE ETHERNET&lt;br&gt;LAN ENC 28J60" style="rounded=1;whiteSpace=wrap;html=1;" vertex="1" parent="1">
          <mxGeometry x="583" y="30" width="120" height="60" as="geometry" />
        </mxCell>
        <mxCell id="WwDCoRHWFadDtdQRUzwM-56" value="" style="shape=link;html=1;exitX=1;exitY=0.5;exitDx=0;exitDy=0;entryX=0;entryY=0.5;entryDx=0;entryDy=0;" edge="1" parent="1" source="WwDCoRHWFadDtdQRUzwM-54" target="WwDCoRHWFadDtdQRUzwM-55">
          <mxGeometry width="100" relative="1" as="geometry">
            <mxPoint x="363" y="165" as="sourcePoint" />
            <mxPoint x="463" y="165" as="targetPoint" />
          </mxGeometry>
        </mxCell>
        <mxCell id="WwDCoRHWFadDtdQRUzwM-57" value="" style="shape=link;html=1;entryX=0.5;entryY=1;entryDx=0;entryDy=0;" edge="1" parent="1" target="WwDCoRHWFadDtdQRUzwM-55">
          <mxGeometry width="100" relative="1" as="geometry">
            <mxPoint x="643" y="242" as="sourcePoint" />
            <mxPoint x="593" y="70" as="targetPoint" />
          </mxGeometry>
        </mxCell>
        <mxCell id="WwDCoRHWFadDtdQRUzwM-58" value="RTC&lt;br&gt;DS 3231" style="rounded=1;whiteSpace=wrap;html=1;" vertex="1" parent="1">
          <mxGeometry x="663" y="135" width="60" height="50" as="geometry" />
        </mxCell>
        <mxCell id="WwDCoRHWFadDtdQRUzwM-59" value="" style="shape=link;html=1;entryX=0.5;entryY=1;entryDx=0;entryDy=0;exitX=0.75;exitY=0;exitDx=0;exitDy=0;" edge="1" parent="1" source="WwDCoRHWFadDtdQRUzwM-2" target="WwDCoRHWFadDtdQRUzwM-58">
          <mxGeometry width="100" relative="1" as="geometry">
            <mxPoint x="653" y="252" as="sourcePoint" />
            <mxPoint x="653" y="100" as="targetPoint" />
          </mxGeometry>
        </mxCell>
        <mxCell id="WwDCoRHWFadDtdQRUzwM-60" value="" style="shape=link;html=1;exitX=0.5;exitY=1;exitDx=0;exitDy=0;exitPerimeter=0;" edge="1" parent="1" source="WwDCoRHWFadDtdQRUzwM-2" target="WwDCoRHWFadDtdQRUzwM-20">
          <mxGeometry width="100" relative="1" as="geometry">
            <mxPoint x="663" y="405" as="sourcePoint" />
            <mxPoint x="703" y="195" as="targetPoint" />
          </mxGeometry>
        </mxCell>
        <mxCell id="WwDCoRHWFadDtdQRUzwM-74" value="" style="edgeStyle=orthogonalEdgeStyle;rounded=0;orthogonalLoop=1;jettySize=auto;html=1;" edge="1" parent="1" source="WwDCoRHWFadDtdQRUzwM-70" target="WwDCoRHWFadDtdQRUzwM-73">
          <mxGeometry relative="1" as="geometry" />
        </mxCell>
        <mxCell id="WwDCoRHWFadDtdQRUzwM-70" value="RaspberryPi" style="whiteSpace=wrap;html=1;aspect=fixed;" vertex="1" parent="1">
          <mxGeometry x="1140" y="250" width="120" height="120" as="geometry" />
        </mxCell>
        <mxCell id="WwDCoRHWFadDtdQRUzwM-71" value="RJ 11" style="whiteSpace=wrap;html=1;rounded=0;" vertex="1" parent="1">
          <mxGeometry x="840" y="510" width="70" height="40" as="geometry" />
        </mxCell>
        <mxCell id="WwDCoRHWFadDtdQRUzwM-73" value="ECRAN&amp;nbsp;&lt;br&gt;Configuration&amp;nbsp;" style="whiteSpace=wrap;html=1;aspect=fixed;" vertex="1" parent="1">
          <mxGeometry x="1140" y="450" width="120" height="120" as="geometry" />
        </mxCell>
        <mxCell id="WwDCoRHWFadDtdQRUzwM-75" value="" style="shape=link;html=1;exitX=1;exitY=0.5;exitDx=0;exitDy=0;entryX=-0.025;entryY=0.58;entryDx=0;entryDy=0;entryPerimeter=0;" edge="1" parent="1" source="WwDCoRHWFadDtdQRUzwM-2" target="WwDCoRHWFadDtdQRUzwM-70">
          <mxGeometry width="100" relative="1" as="geometry">
            <mxPoint x="840" y="319.40999999999997" as="sourcePoint" />
            <mxPoint x="940" y="319.40999999999997" as="targetPoint" />
          </mxGeometry>
        </mxCell>
        <mxCell id="WwDCoRHWFadDtdQRUzwM-76" value="MQTT&lt;br&gt;BROKER" style="text;html=1;strokeColor=none;fillColor=none;align=center;verticalAlign=middle;whiteSpace=wrap;rounded=0;" vertex="1" parent="1">
          <mxGeometry x="1180" y="340" width="40" height="20" as="geometry" />
        </mxCell>
        <mxCell id="WwDCoRHWFadDtdQRUzwM-83" value="" style="shape=image;html=1;verticalAlign=top;verticalLabelPosition=bottom;labelBackgroundColor=#ffffff;imageAspect=0;aspect=fixed;image=https://cdn4.iconfinder.com/data/icons/device-communication-technology-gadgets-media-obje/32/Artboard_13-128.png" vertex="1" parent="1">
          <mxGeometry x="1140" y="540" width="128" height="128" as="geometry" />
        </mxCell>
        <mxCell id="WwDCoRHWFadDtdQRUzwM-85" value="" style="shape=image;html=1;verticalAlign=top;verticalLabelPosition=bottom;labelBackgroundColor=#ffffff;imageAspect=0;aspect=fixed;image=https://cdn1.iconfinder.com/data/icons/general-9/500/laptop-128.png" vertex="1" parent="1">
          <mxGeometry x="1380" y="97" width="128" height="128" as="geometry" />
        </mxCell>
        <mxCell id="WwDCoRHWFadDtdQRUzwM-86" value="" style="shape=image;html=1;verticalAlign=top;verticalLabelPosition=bottom;labelBackgroundColor=#ffffff;imageAspect=0;aspect=fixed;image=https://cdn1.iconfinder.com/data/icons/general-9/500/iPad-128.png" vertex="1" parent="1">
          <mxGeometry x="1380" y="388" width="128" height="128" as="geometry" />
        </mxCell>
        <mxCell id="WwDCoRHWFadDtdQRUzwM-87" value="" style="shape=image;html=1;verticalAlign=top;verticalLabelPosition=bottom;labelBackgroundColor=#ffffff;imageAspect=0;aspect=fixed;image=https://cdn3.iconfinder.com/data/icons/freeapplication/png/24x24/Key.png" vertex="1" parent="1">
          <mxGeometry x="314.5" y="94" width="24" height="24" as="geometry" />
        </mxCell>
        <mxCell id="WwDCoRHWFadDtdQRUzwM-88" value="" style="endArrow=classic;startArrow=classic;html=1;exitX=0.995;exitY=0.337;exitDx=0;exitDy=0;exitPerimeter=0;" edge="1" parent="1" source="WwDCoRHWFadDtdQRUzwM-70" target="WwDCoRHWFadDtdQRUzwM-85">
          <mxGeometry width="50" height="50" relative="1" as="geometry">
            <mxPoint x="900" y="410" as="sourcePoint" />
            <mxPoint x="950" y="360" as="targetPoint" />
          </mxGeometry>
        </mxCell>
        <mxCell id="WwDCoRHWFadDtdQRUzwM-89" value="" style="endArrow=classic;startArrow=classic;html=1;exitX=1.011;exitY=0.65;exitDx=0;exitDy=0;exitPerimeter=0;" edge="1" parent="1" source="WwDCoRHWFadDtdQRUzwM-70" target="WwDCoRHWFadDtdQRUzwM-86">
          <mxGeometry width="50" height="50" relative="1" as="geometry">
            <mxPoint x="1269.4" y="300.44000000000005" as="sourcePoint" />
            <mxPoint x="1390" y="215.8762730227519" as="targetPoint" />
          </mxGeometry>
        </mxCell>
      </root>
    </mxGraphModel>
  </diagram>
</mxfile>
